<svg width="45" height="45" viewBox="0 0 45 45" fill="none" xmlns="http://www.w3.org/2000/svg">
<path d="M24.25 35.5C25.2165 35.5 26 34.7165 26 33.75C26 32.7835 25.2165 32 24.25 32C23.2835 32 22.5 32.7835 22.5 33.75C22.5 34.7165 23.2835 35.5 24.25 35.5Z" fill="#64748B"/>
<path d="M16.25 35.5C17.2165 35.5 18 34.7165 18 33.75C18 32.7835 17.2165 32 16.25 32C15.2835 32 14.5 32.7835 14.5 33.75C14.5 34.7165 15.2835 35.5 16.25 35.5Z" fill="#64748B"/>
<path d="M12.84 16.94L12.64 19.39C12.6 19.86 12.97 20.25 13.44 20.25H28.75C29.17 20.25 29.52 19.93 29.55 19.51C29.68 17.74 28.33 16.3 26.56 16.3H14.27C14.17 15.86 13.97 15.44 13.66 15.09C13.16 14.56 12.46 14.25 11.74 14.25H10C9.59 14.25 9.25 14.59 9.25 15C9.25 15.41 9.59 15.75 10 15.75H11.74C12.05 15.75 12.34 15.88 12.55 16.1C12.76 16.33 12.86 16.63 12.84 16.94Z" fill="#64748B"/>
<path d="M28.5101 21.75H13.1701C12.7501 21.75 12.4101 22.07 12.3701 22.48L12.0101 26.83C11.8701 28.54 13.2101 30 14.9201 30H26.0401C27.5401 30 28.8601 28.77 28.9701 27.27L29.3001 22.6C29.3401 22.14 28.9801 21.75 28.5101 21.75Z" fill="#64748B"/>
<circle cx="33.5" cy="11.5" r="10.5" fill="#EF4444" stroke="white" stroke-width="2"/>
</svg>
